DataType=double
version=3
OpenSimVersion=4.5-2024-01-10-34fd6af
endheader
time	ground_force_1_vx	ground_force_1_vy	ground_force_1_vz	ground_force_1_px	ground_force_1_py	ground_force_1_pz	ground_moment_1_mx	ground_moment_1_my	ground_moment_1_mz	ground_force_2_vx	ground_force_2_vy	ground_force_2_vz	ground_force_2_px	ground_force_2_py	ground_force_2_pz	ground_moment_2_mx	ground_moment_2_my	ground_moment_2_mz
45	37.28432547	713.5657199	63.79172903	0.9722042852843259	0	0.3593676819550522	0	2.466825186901701	0	-3.28e-54	-2.29e-52	4.37e-54	0.8201576356468924	0	0.7216919328298302	0	5.81e-55	0
45.01	39.7217112	717.7254392999999	63.76801056	0.9662764274789181	0	0.3587205355737695	0	2.519815502243643	0	-1.6e-50	-1.05e-48	2e-50	0.8201576356468924	0	0.7216919328298302	0	2.71e-51	0
45.02	42.31846572	721.528194	63.74561916	0.960494302966613	0	0.3579965386842744	0	2.56175464538854	0	-7.66e-47	-4.78e-45	9.12e-47	0.8201576356468924	0	0.7216919328298302	0	1.33e-47	0
45.03	45.08909269	724.7653872	63.75166944	0.9548726614281959	0	0.3571761075253195	0	2.596919826552424	0	-3.19e-43	-2.18e-41	4.17e-43	0.8201576356468924	0	0.7216919328298302	0	5.82e-44	0
45.04	48.07800862	727.2927214	63.84864151	0.949447175431225	0	0.3562339522599317	0	2.628053593922489	0	-1.52e-39	-1e-37	1.9e-39	0.8201576356468924	0	0.7216919328298302	0	2.61e-40	0
45.05	51.26030401	729.0101508	64.13511748000001	0.944216963886659	0	0.3551404183987756	0	2.668281089634233	0	-6.25e-36	-4.55e-34	8.6e-36	0.8201576356468924	0	0.7216919328298302	0	1.12e-36	0
45.06	54.61167438	729.8339109	64.67206126000001	0.9392095076158385	0	0.3538658445897316	0	2.728834861051036	0	-3.25e-32	-2.08e-30	4.03e-32	0.8201576356468924	0	0.7216919328298302	0	5.63e-33	0
45.07	58.04940717	729.6629683	65.51145712	0.9344316850497584	0	0.3523849225857238	0	2.824816310968518	0	-1.41e-28	-9.53e-27	1.8e-28	0.8201576356468924	0	0.7216919328298302	0	2.45e-29	0
45.08	61.45862802	728.3577571	66.65289117	0.9299126248576366	0	0.3506833450576278	0	2.963425705875465	0	-6.33e-25	-4.34e-23	8.23e-25	0.8201576356468924	0	0.7216919328298302	0	1.05e-25	0
45.09	64.68734637	725.7777169	68.06596758000001	0.9256973655738447	0	0.348756249467541	0	3.147579689743782	0	-2.83e-21	-1.99e-19	3.78e-21	0.8201576356468924	0	0.7216919328298302	0	5.19e-22	0
45.1	67.53522328	721.7943671	69.68861783	0.9218716721788194	0	0.3466110850355437	0	3.378768274193015	0	-1.44e-17	-9.059999999999999e-16	1.74e-17	0.8201576356468924	0	0.7216919328298302	0	2.36e-18	0
45.11	69.84614428	716.290877	71.40864437	0.9185174960065291	0	0.3442738556055169	0	3.646618759908317	0	2.372947132	16.36130461	-0.114016021	1.029745416251143	0	0.5947156733248127	0	-0.2502865049701985	0
45.12	71.46347027	709.0954786	73.04331657	0.9156822082561401	0	0.3417920438208911	0	3.94031951722046	0	3.27282933	45.18073284	1.286087349	1.16551263852515	0	0.5647428121037044	0	-0.2176147592542383	0
45.13	72.38495956	699.8789497	74.34351181	0.9133551410835469	0	0.3392355965297605	0	4.23239727274055	0	3.007681325	87.94607898	2.798884159	1.203566079219097	0	0.5569983697058407	0	0.001025095296821377	0
45.14	72.64502704	688.0812445	75.01650909	0.9114538481009434	0	0.3366921396618652	0	4.495567331978831	0	0.687430994	145.9212515	4.168820805	1.219948018749521	0	0.5541799726545161	0	0.3682477870073626	0
45.15	72.37088163999999	672.8584611	74.75499152	0.9098707194182816	0	0.3342565742885908	0	4.696566644553131	0	-4.771168207	217.9358949	4.983450331	1.228457177495333	0	0.5531642060556209	0	0.8898977669886721	0
45.16	71.64290547	653.1243721	73.26573722000001	0.9084633021193605	0	0.3320222176024263	0	4.805917115724591	0	-14.42747782	299.1074471	4.780949261	1.233431379241356	0	0.55303386801363	0	1.551021655728803	0
45.17	70.45187871	627.6646183	70.34145072	0.9071375980297529	0	0.3300693413528976	0	4.804288963282083	0	-27.87836385	380.1741672	2.819393164	1.2364787241251	0	0.5533868455293063	0	2.274805709314476	0
45.18	68.67937187	595.322331	65.97295105000001	0.9058110164611545	0	0.3284645353573716	0	4.674463341915106	0	-42.79756335	450.586016	-2.099108037	1.238113014892395	0	0.5539115388639421	0	2.722826584675327	0
45.19	66.07285365	555.4824577000001	60.37973835	0.9044480541089412	0	0.3272239736678687	0	4.423613275978197	0	-56.92116325	505.5714736	-9.579183243999999	1.23844944925368	0	0.5546687166291289	0	2.900626392095323	0
45.2	62.36656496	508.401779	53.97259152	0.9030390337363097	0	0.3263094198808453	0	4.076660074935845	0	-69.35992446	546.2880996	-18.33565291	1.237544731333133	0	0.5556791802613501	0	3.016023886837674	0
45.21	57.43145001	455.0097698	47.33280732	0.9015047407922904	0	0.3256625162315924	0	3.67087152206071	0	-79.27464798	576.8992935	-27.88983315	1.235487853415655	0	0.5569466451845785	0	3.053128839834878	0
45.22	51.2780931	396.9518913	40.91791086	0.8997714522758149	0	0.3252066131673319	0	3.24652147707315	0	-86.61152296	602.061691	-36.90922215	1.232516358866171	0	0.5583763288978073	0	3.178955019524595	0
45.23	43.96568336	336.365898	34.95461405	0.8976991668953678	0	0.3248764416077443	0	2.825245112505625	0	-91.25633341	625.3540536	-44.80034324	1.228782112819387	0	0.5599261847425774	0	3.433404304638298	0
45.24	35.72277669	275.7631495	29.5922409	0.8950869546339617	0	0.3246161131232033	0	2.408876442849621	0	-93.63676228999999	648.1491774	-51.35274057	1.224594897839428	0	0.561500326297985	0	3.711931416110051	0
45.25	26.94713834	217.7826394	24.84512728	0.8916937806889103	0	0.3243816549242722	0	1.996492991353297	0	-94.04223921000001	670.7097641	-56.3785794	1.220010139150949	0	0.563096331433247	0	4.071206658716495	0
45.26	18.29075875	164.8207202	20.7247904	0.8868570095352497	0	0.3241758586718347	0	1.580431845773239	0	-92.95799861	692.472595	-60.5098363	1.215288592851054	0	0.5647325938107893	0	4.350318864155323	0
45.27	10.46117214	118.7170732	17.20348418	0.8794169320849394	0	0.3240376381311128	0	1.165632414811641	0	-90.74068158	712.7251001	-64.00701033999999	1.210492950007179	0	0.5664534281321899	0	4.562271863950098	0
45.28	4.070950043	80.38946711	14.19980345	0.8664681017016997	0	0.3242115907273769	0	0.7432270565518946	0	-87.75725102	730.3913605	-67.19687445	1.205758650022527	0	0.5682840692383222	0	4.668806335565932	0
45.29	-0.544300047	50.01752216	11.64817001	0.8414949135799833	0	0.3252715912457201	0	0.2869538491204578	0	-84.41581083	744.4912943	-70.31400714999999	1.201158598816919	0	0.5702484898195121	0	4.615201554902946	0
45.3	-3.38293027	27.13136968	9.472340134	0.7838639301187408	0	0.3290826697450489	0	-0.3123816178836156	0	-80.9580265	754.3346944	-73.15101043	1.196649644709123	0	0.5723452042008255	0	4.475677024241818	0
45.31	-4.600840857	10.89764723	7.64849234	0.5922752171636357	0	0.3444383549872339	0	-1.637286247762272	0	-77.60581964000001	759.7063813	-75.77842162	1.192258879835823	0	0.5745784461578446	0	4.197396449246984	0
45.32	-3.71e-16	2.21e-14	1.93e-15	0.8195502510977265	0	0.2404965338681078	0	-3.01e-17	0	-74.32105844	760.9095514000001	-77.92620715	1.187852841319139	0	0.5769269578110136	0	3.852423016284028	0
45.33	-8.47e-20	4.83e-18	4.24e-19	0.8195502510977265	0	0.2404965338681078	0	-7.09e-21	0	-71.12602739	758.4916351000001	-79.50027706	1.183405914401707	0	0.579358012844323	0	3.450177946008868	0
45.34	-1.81e-23	1.06e-21	9.43e-23	0.8195502510977265	0	0.2404965338681078	0	-1.46e-24	0	-67.95050721	753.196239	-80.61355919	1.178840046300831	0	0.5818461038864385	0	2.983951200430475	0
45.35	-4.17e-27	2.32e-25	2.05e-26	0.8195502510977265	0	0.2404965338681078	0	-3.44e-28	0	-64.81694869	745.6815276	-81.15249192	1.174117394378617	0	0.5843271442321087	0	2.499222055167333	0
45.36	-8.440000000000001e-31	5.08e-29	4.59e-30	0.8195502510977265	0	0.2404965338681078	0	-6.7e-32	0	-61.69847309	736.7847799	-81.29744255999999	1.16920140760823	0	0.5867722878508828	0	1.992562833001472	0
45.37	-1.87e-34	1.11e-32	9.799999999999999e-34	0.8195502510977265	0	0.2404965338681078	0	-1.53e-35	0	-58.64841832	727.0990312	-81.04192868	1.164043369048761	0	0.5891024140116129	0	1.494886035077961	0
45.38	-4.15e-38	2.44e-36	2.15e-37	0.8195502510977265	0	0.2404965338681078	0	-3.58e-39	0	-55.69562372	717.3175379	-80.43623753	1.158645466867114	0	0.5912856827695667	0	1.041234932863059	0
45.39	-9.06e-42	5.34e-40	4.6e-41	0.8195502510977265	0	0.2404965338681078	0	-7.45e-43	0	-52.95597853	707.8182222	-79.61150775999999	1.15299188010554	0	0.5932575782614434	0	0.622920961448763	0
45.4	-2.05e-45	1.17e-43	1.02e-44	0.8195502510977265	0	0.2404965338681078	0	-1.7e-46	0	-50.44359837	699.1273164	-78.52657560999999	1.147095165533402	0	0.5949917006230259	0	0.2857224527946194	0
45.41	-4.3e-49	2.56e-47	2.25e-48	0.8195502510977265	0	0.2404965338681078	0	-3.57e-50	0	-48.28149593	691.5073277	-77.33809913	1.140967546133109	0	0.5964463690726611	0	-0.0009188958617833975	0
45.42	-9.590000000000001e-53	5.610000000000001e-51	4.97e-52	0.8195502510977265	0	0.2404965338681078	0	-7.42e-54	0	-46.41952302	685.2574827	-76.10568440999999	1.134612259843001	0	0.5976091968997145	0	-0.220073027226789	0
45.43	-2.12e-56	1.23e-54	1.1e-55	0.8195502510977265	0	0.2404965338681078	0	-1.82e-57	0	-44.8990914	680.4408997	-74.86361088	1.128043134141127	0	0.5984612422923138	0	-0.3753770925962741	0
45.44	-4.55e-60	2.69e-58	2.42e-59	0.8195502510977265	0	0.2404965338681078	0	-3.89e-61	0	-43.60093735	677.1245339	-73.71880036	1.121246289643454	0	0.599009804711477	0	-0.4694226266866259	0
45.45	-1.05e-63	5.89e-62	5.19e-63	0.8195502510977265	0	0.2404965338681078	0	-8.96e-65	0	-42.47309646	675.2512296	-72.58550219999999	1.11419726252416	0	0.5992470595950522	0	-0.4894673855202569	0
45.46	-2.11e-67	1.29e-65	1.11e-66	0.8195502510977265	0	0.2404965338681078	0	-1.74e-68	0	-41.33468064	674.8208567	-71.47266510999999	1.106801681810381	0	0.5991774461047196	0	-0.4287442697743984	0
45.47	-4.64e-71	2.83e-69	2.51e-70	0.8195502510977265	0	0.2404965338681078	0	-4.17e-72	0	-40.03467807	675.8046028	-70.32461606	1.098986515946433	0	0.5987872326163857	0	-0.2889414298400155	0
45.48	-1.05e-74	6.19e-73	5.5e-74	0.8195502510977265	0	0.2404965338681078	0	-8.38e-76	0	-38.35191061	678.2634597	-69.05418907000001	1.09061689358943	0	0.598067604228836	0	-0.05940988342246456	0
45.49	-2.36e-78	1.34e-76	1.2e-77	0.8195502510977265	0	0.2404965338681078	0	-2.2e-79	0	-36.01696216	682.272056	-67.66079873	1.081556910366712	0	0.5970047066685407	0	0.2482860885277951	0
